<?xml version="1.0" encoding="UTF-8"?>
<svg width="100px" height="100px" viewBox="0 0 100 100" version="1.1" xmlns="http://www.w3.org/2000/svg" xmlns:xlink="http://www.w3.org/1999/xlink">
    <!-- Generator: Sketch 51.2 (57519) - http://www.bohemiancoding.com/sketch -->
    <title>Group 38</title>
    <desc>Created with Sketch.</desc>
    <defs>
        <linearGradient x1="109.273457%" y1="50%" x2="-29.8911133%" y2="50%" id="linearGradient-1">
            <stop stop-color="#4D8DFF" offset="0%"></stop>
            <stop stop-color="#004FDA" offset="100%"></stop>
        </linearGradient>
        <linearGradient x1="109.159655%" y1="50%" x2="13.1360176%" y2="50%" id="linearGradient-2">
            <stop stop-color="#70BAFF" offset="0%"></stop>
            <stop stop-color="#1890FF" offset="100%"></stop>
        </linearGradient>
        <linearGradient x1="137.369629%" y1="50%" x2="-29.65625%" y2="50%" id="linearGradient-3">
            <stop stop-color="#FFFFFF" offset="0%"></stop>
            <stop stop-color="#70DCFF" offset="100%"></stop>
        </linearGradient>
    </defs>
    <g id="Page-1" stroke="none" stroke-width="1" fill="none" fill-rule="evenodd">
        <g id="首页" transform="translate(-1093.000000, -994.000000)">
            <g id="Group-38" transform="translate(1093.000000, 994.000000)">
                <path d="M50,100 C63.8937144,100 76.4638627,94.3331396 85.5251775,85.184686 C94.4735389,76.150272 100,63.7205231 100,50 C100,22.3857625 77.6142375,0 50,0 C22.3857625,0 0,22.3857625 0,50 C0,77.6142375 22.3857625,100 50,100 Z" id="Oval-8-Copy" fill="#FCFCFF"></path>
                <g id="Group-64" transform="translate(24.000000, 21.000000)">
                    <g id="Group-109">
                        <path d="M24.0446111,27.0868321 L48.8784617,38.9025744 C50.8733147,39.851709 51.7210368,42.2382826 50.7719022,44.2331356 C50.4380146,44.9348869 49.9069381,45.5241807 49.2435719,45.929003 L31.3109697,56.8724575 C30.1581775,57.5759544 28.7282363,57.6502576 27.5087388,57.0700306 L2.67488821,45.2542884 C0.680035216,44.3051537 -0.167686973,41.9185802 0.781447707,39.9237272 C1.11533524,39.2219758 1.64641181,38.6326821 2.30977802,38.2278598 L20.2423802,27.2844052 C21.3951723,26.5809084 22.8251135,26.5066052 24.0446111,27.0868321 Z" id="Rectangle-75" fill="url(#linearGradient-1)"></path>
                        <path d="M24.0446111,14.0084007 L48.8784617,25.824143 C50.8733147,26.7732777 51.7210368,29.1598512 50.7719022,31.1547042 C50.4380146,31.8564556 49.9069381,32.4457493 49.2435719,32.8505716 L31.3109697,43.7940262 C30.1581775,44.497523 28.7282363,44.5718262 27.5087388,43.9915993 L2.67488821,32.175857 C0.680035216,31.2267223 -0.167686973,28.8401488 0.781447707,26.8452958 C1.11533524,26.1435444 1.64641181,25.5542507 2.30977802,25.1494284 L20.2423802,14.2059738 C21.3951723,13.502477 22.8251135,13.4281738 24.0446111,14.0084007 Z" id="Rectangle-75" fill="url(#linearGradient-2)"></path>
                        <path d="M24.0446111,0.929969361 L48.8784617,12.7457116 C50.8733147,13.6948463 51.7210368,16.0814198 50.7719022,18.0762728 C50.4380146,18.7780242 49.9069381,19.3673179 49.2435719,19.7721402 L31.3109697,30.7155948 C30.1581775,31.4190916 28.7282363,31.4933948 27.5087388,30.9131679 L2.67488821,19.0974256 C0.680035216,18.148291 -0.167686973,15.7617174 0.781447707,13.7668644 C1.11533524,13.0651131 1.64641181,12.4758193 2.30977802,12.070997 L20.2423802,1.12754246 C21.3951723,0.424045633 22.8251135,0.349742437 24.0446111,0.929969361 Z" id="Rectangle-75" fill="url(#linearGradient-3)"></path>
                    </g>
                </g>
            </g>
        </g>
    </g>
</svg>